<svg width="448" height="448" viewBox="0 0 448 448" fill="none" xmlns="http://www.w3.org/2000/svg">
<path d="M0 32C0 14.3 14.3 0 32 0C261.8 0 448 186.2 448 416C448 433.7 433.7 448 416 448C398.3 448 384 433.7 384 416C384 221.6 226.4 64 32 64C14.3 64 0 49.7 0 32ZM0 384C0 367.026 6.74284 350.748 18.7452 338.745C30.7475 326.743 47.0261 320 64 320C80.9739 320 97.2525 326.743 109.255 338.745C121.257 350.748 128 367.026 128 384C128 400.974 121.257 417.252 109.255 429.255C97.2525 441.257 80.9739 448 64 448C47.0261 448 30.7475 441.257 18.7452 429.255C6.74284 417.252 0 400.974 0 384ZM32 128C191.1 128 320 256.9 320 416C320 433.7 305.7 448 288 448C270.3 448 256 433.7 256 416C256 292.3 155.7 192 32 192C14.3 192 0 177.7 0 160C0 142.3 14.3 128 32 128Z" fill="#696969"/>
</svg>
